<svg fill="#ff9300" height="512" viewBox="0 0 61.779 61.779" width="512" xmlns="http://www.w3.org/2000/svg"><path d="m37.727 33.754c4.29-2.734 8.795-5.097 13.518-7.02 2.818-1.147 1.587-5.782-1.273-4.617-4.468 1.818-8.757 3.94-12.867 6.407-.033-.036-.062-.072-.097-.107-.99-.978-2.507-1.435-3.905-1.244-1.602-4.29-4.08-8.14-7.137-11.622-2.04-2.325-5.413 1.075-3.385 3.385 2.94 3.352 5.19 7.094 6.51 11.314l-4.08 4.667a20.56 20.56 0 0 0 -6.411-4.297c-4.656-1.982-8.813 5.765-10.48 9.055-.47.93-.433 1.827-.097 2.578-2.64 1.314-5.08 3.146-7.215 5.494-2.592 2.848 1.63 7.092 4.23 4.23 5.096-5.598 11.794-7.467 19.034-5.214 1.623.506 2.835-.327 3.375-1.516a3.71 3.71 0 0 0 1.21-.906l8.38-9.576a5.51 5.51 0 0 0 .686-1.011zm-16.542 6.283c-2.203-.272-4.38-.236-6.496.093.762-1.265 1.634-2.43 2.746-3.42 1.47.818 2.755 1.795 3.86 2.986a4.85 4.85 0 0 0 -.11.342z"/><circle cx="37.854" cy="21.335" r="4.605"/><path d="m58.065 9.493-1.018 8.946c2.314.263 4.42-1.525 4.7-3.996s-1.365-4.685-3.682-4.95zm-1.538-3.343c-.13-.015-.256.148-.28.365l-1.642 14.415c-.024.216.06.403.188.418l1.705-2.682 1.062-9.323zm-19.84 41.385h-.3v1.196h.3a9.49 9.49 0 0 0 9.477-9.476v-.3h-1.194v.3c-.002 4.568-3.715 8.28-8.28 8.28zm15.173-9.975c0 9.303-7.568 16.87-16.87 16.87h-.3v1.196h.3c9.962 0 18.068-8.104 18.068-18.067v-.3h-1.198v.3z"/></svg>