<svg xmlns="http://www.w3.org/2000/svg" viewBox="0 0 470 470" width="512" height="512" fill="#fcba1b"><path d="M429.6 418.378L367.368 268.16a7.5 7.5 0 1 0-13.858 5.74l56.25 135.8-51.3-14.867a7.5 7.5 0 0 0-8.656 3.586l-25.77 46.793-60.357-145.716c69.663-13.434 122.447-74.853 122.447-148.378C386.118 67.792 318.327 0 235 0S83.88 67.792 83.88 151.12c0 33.75 11.124 64.95 29.896 90.133L40.4 418.378a7.5 7.5 0 0 0 9.017 10.074l60.533-17.54 30.4 55.207a7.5 7.5 0 0 0 6.568 3.882 8.28 8.28 0 0 0 .416-.011 7.5 7.5 0 0 0 6.515-4.619l58.136-140.353a7.5 7.5 0 1 0-13.858-5.74L145.97 445.213l-25.767-46.793a7.5 7.5 0 0 0-8.657-3.586L60.24 409.7l64.397-155.47c27.598 29.52 66.86 48.005 110.364 48.005a152.51 152.51 0 0 0 13.325-.594l67.818 163.727a7.5 7.5 0 0 0 6.514 4.618 7.28 7.28 0 0 0 .417.012 7.5 7.5 0 0 0 6.567-3.882l30.4-55.207 60.533 17.54a7.5 7.5 0 0 0 9.016-10.074zM98.88 151.12C98.88 76.063 159.944 15 235 15s136.118 61.063 136.118 136.12S310.056 287.237 235 287.237 98.88 226.175 98.88 151.12zm222.78-28.16a7.5 7.5 0 0 0-5.892-5.079l-50.467-8.47-23.65-45.38a7.5 7.5 0 0 0-13.302 0l-23.65 45.38-50.466 8.47a7.5 7.5 0 0 0-4.111 12.651l35.85 36.515-7.54 50.614a7.5 7.5 0 0 0 3.01 7.173c2.26 1.642 5.25 1.9 7.75.646L235 202.67l45.806 22.812a7.5 7.5 0 0 0 7.753-.645 7.5 7.5 0 0 0 3.01-7.173l-7.54-50.614 35.85-36.516a7.5 7.5 0 0 0 1.78-7.572zm-50.95 36.244a7.5 7.5 0 0 0-2.066 6.359l5.97 40.074-36.268-18.06c-1.054-.524-2.198-.787-3.344-.787s-2.3.262-3.343.787l-36.268 18.06 5.97-40.074a7.5 7.5 0 0 0-2.066-6.359L170.9 130.292l39.957-6.706a7.5 7.5 0 0 0 5.41-3.93L235 83.728l18.725 35.93a7.5 7.5 0 0 0 5.41 3.93l39.958 6.706-28.385 28.9zm77.902-.52c-4.107-.55-7.877 2.343-8.42 6.45-6.957 52.507-52.18 92.104-105.192 92.104-58.514 0-106.12-47.604-106.12-106.12S176.486 45 235 45c53.013 0 98.235 39.596 105.192 92.104a7.5 7.5 0 0 0 8.42 6.45 7.5 7.5 0 0 0 6.449-8.42C347.12 75.198 295.506 30 235 30c-66.785 0-121.12 54.333-121.12 121.12S168.215 272.237 235 272.237c60.506 0 112.12-45.198 120.062-105.134a7.5 7.5 0 0 0-6.45-8.419z"/></svg>