<svg xmlns="http://www.w3.org/2000/svg" viewBox="0 0 128 128" width="512" height="512" fill="#ff9300"><path d="M41.184 78.416a9.134 9.134 0 0 0-2.308 1.829L35.1 84.018l8.882 8.882 1.793-1.8-3.707-3.7.363-.363a4.184 4.184 0 0 1 1-.8 1.947 1.947 0 0 1 .909-.169 17.713 17.713 0 0 1 2.25.36l3.228.636 2.144-2.144-2.816-.648a14.316 14.316 0 0 0-2.462-.421 5.914 5.914 0 0 0-1.7.215 3.99 3.99 0 0 0 .936-2.577 3.352 3.352 0 0 0-1.063-2.238 3.617 3.617 0 0 0-1.787-1.011 2.885 2.885 0 0 0-1.886.176zm2.423 3.64a1.366 1.366 0 0 1-.127.878 9.685 9.685 0 0 1-1.5 1.72l-1.33 1.326-2.25-2.253 1.4-1.4q1.1-1.1 1.338-1.278a1.552 1.552 0 0 1 1.024-.327 1.505 1.505 0 0 1 .963.484 1.636 1.636 0 0 1 .482.849zm7.03-13.573l-6.583 6.583 8.88 8.88 6.753-6.753-1.496-1.496-4.96 4.96-2.416-2.416 4.457-4.458-1.495-1.496-4.458 4.458-1.968-1.97 4.8-4.8-1.502-1.502zm1.708-1.708l8.88 8.88 1.666-1.666-5.8-5.8 9.37 2.2 1.8-1.8-8.88-8.88-1.666 1.666 5.93 5.93-9.563-2.295-1.745 1.744zm15.36-15.36L60.65 58.47l1.502 1.502 2.634-2.634 7.377 7.377 1.793-1.793-7.377-7.377 2.628-2.628-1.502-1.502zM93.02 50.17a1.253 1.253 0 0 0-1.343 1.149l-.385 4.94-48.55 48.552-20.436-20.436a1.25 1.25 0 1 0-1.767 1.768l21.32 21.32a1.25 1.25 0 0 0 1.768 0l49.76-49.76a1.249 1.249 0 0 0 .362-.787l.42-5.4a1.25 1.25 0 0 0-1.15-1.344zm12.488-27.678c-4.306-4.307-12.845-2.52-19.44 4.075a26.066 26.066 0 0 0-1.941 2.173 1.251 1.251 0 0 0 1.956 1.56 23.269 23.269 0 0 1 1.752-1.962c5.415-5.414 12.7-7.28 15.9-4.075s1.34 10.5-4.074 15.9a22.039 22.039 0 0 1-4.9 3.714l.785-10.084a1.25 1.25 0 0 0-1.343-1.343l-23.12 1.8a1.247 1.247 0 0 0-.787.362l-45.22 45.224a1.25 1.25 0 1 0 1.768 1.764l44.9-44.9 21.2-1.65-.78 10a14.664 14.664 0 0 1-1.577.473A9.921 9.921 0 0 1 87 45.74a4.208 4.208 0 0 0 .061-.623 4.18 4.18 0 1 0-1.225 2.957 10.145 10.145 0 0 0 2.268.254 13.591 13.591 0 0 0 3.046-.365 22.02 22.02 0 0 0 10.282-6.032 22.01 22.01 0 0 0 6.031-10.283c.872-3.772.177-7.024-1.955-9.156zM81.694 46.305a1.68 1.68 0 0 1 2.376-2.376 1.663 1.663 0 0 1 .466.925 4.9 4.9 0 0 1-.775-.616 1.25 1.25 0 0 0-1.768 1.768 7.451 7.451 0 0 0 .924.772 1.683 1.683 0 0 1-1.223-.473z"/></svg>