<svg xmlns="http://www.w3.org/2000/svg" viewBox="0 0 479.969 479.969" width="512" height="512" fill="#ff9300"><path d="M396.17 34.38c-.535 0-1.07.055-1.594.162a208.99 208.99 0 0 1-151.664-26.88l-10.552-6.48a8 8 0 0 0-8.368 0l-10.552 6.48C168.146 35.593 113.904 45.195 61.775 34.5a8 8 0 0 0-9.438 6.238 8.07 8.07 0 0 0-.162 1.626v245.92c-.014 31.604 8.392 62.642 24.352 89.92 18.275 31.42 46.07 56.213 79.368 70.792l69.08 30.296c2.04.9 4.36.9 6.4 0l69.104-30.296c3.888-1.704 7.712-3.552 11.44-5.528 3.904-2.072 5.388-6.916 3.316-10.82s-6.916-5.388-10.82-3.316a156.13 156.13 0 0 1-10.36 5.008l-65.88 28.888-65.856-28.864c-30.2-13.237-55.425-35.74-72-64.256a161.87 161.87 0 0 1-22.144-81.856V51.933a225.05 225.05 0 0 0 153.6-30.664l6.4-3.912 6.4 3.904c45.87 28.298 100.38 39.182 153.6 30.672V288.26a8 8 0 1 0 16 0V42.373a8 8 0 0 0-8.006-7.993zM227.593 60.06a8 8 0 0 0-10.81-3.337 8.01 8.01 0 0 0-.607.355 175.2 175.2 0 0 1-122.4 20.728 8 8 0 0 0-9.438 6.238 8.06 8.06 0 0 0-.162 1.61v191.12a135.55 135.55 0 0 0 20.088 70.928 138.93 138.93 0 0 0 65.216 55.696c4.076 1.708 8.764-.212 10.472-4.288s-.212-8.764-4.288-10.472a122.99 122.99 0 0 1-57.76-49.304 119.61 119.61 0 0 1-17.728-62.56V95.125a190.95 190.95 0 0 0 124.08-24.256c3.906-2.063 5.4-6.903 3.337-10.8zM425.04 402.343a8 8 0 0 0-10.465-.026l-38.256 38.256c-2.667-.8-5.5-.8-8.176 0l-70.256-70.256c-3.178-3.07-8.243-2.98-11.312.197a8 8 0 0 0 0 11.115l70.248 70.256c-2.37 8.398 2.52 17.127 10.918 19.495a15.82 15.82 0 0 0 4.434.593c8.837 0 16-7.163 16-16-.02-1.383-.22-2.758-.6-4.088l38.256-38.256a8 8 0 0 0-.791-11.286zm-71.208-224.026l-32-32a8 8 0 0 0-11.312 0l-98.344 98.344-26.344-26.344a8 8 0 0 0-11.312 0l-32 32a8 8 0 0 0 0 11.312l64 64a8 8 0 0 0 11.312 0l136-136a8 8 0 0 0 0-11.312zM212.176 308.66l-52.656-52.688 20.656-20.688 26.4 26.344a8 8 0 0 0 11.312 0l98.288-98.344 20.72 20.688-124.72 124.688z"/></svg>